<?xml version="1.0" encoding="utf-8"?>
<!-- Generator: Adobe Illustrator 16.0.0, SVG Export Plug-In . SVG Version: 6.00 Build 0)  -->
<!DOCTYPE svg PUBLIC "-//W3C//DTD SVG 1.1//EN" "http://www.w3.org/Graphics/SVG/1.1/DTD/svg11.dtd">
<svg version="1.1" id="Layer_1" xmlns="http://www.w3.org/2000/svg" xmlns:xlink="http://www.w3.org/1999/xlink" x="0px" y="0px"
	 width="475.144px" height="384.217px" viewBox="82.51 17.706 475.144 384.217"
	 enable-background="new 82.51 17.706 475.144 384.217" xml:space="preserve">
<g>
	<g>
		<g>
			
				<linearGradient id="SVGID_1_" gradientUnits="userSpaceOnUse" x1="570.9456" y1="-174.7842" x2="592.1583" y2="-192.7829" gradientTransform="matrix(1 0 0 -1 -142.8003 -45.1484)">
				<stop  offset="0" style="stop-color:#F58D76"/>
				<stop  offset="1" style="stop-color:#F79974"/>
			</linearGradient>
			<rect x="429.211" y="128.922" fill="url(#SVGID_1_)" width="21.326" height="21.328"/>
			
				<linearGradient id="SVGID_2_" gradientUnits="userSpaceOnUse" x1="588.9592" y1="-281.4229" x2="610.1723" y2="-299.4218" gradientTransform="matrix(1 0 0 -1 -142.8003 -45.1484)">
				<stop  offset="0" style="stop-color:#F58D76"/>
				<stop  offset="1" style="stop-color:#F79974"/>
			</linearGradient>
			<rect x="447.224" y="235.563" fill="url(#SVGID_2_)" width="21.328" height="21.328"/>
			
				<linearGradient id="SVGID_3_" gradientUnits="userSpaceOnUse" x1="590.8518" y1="-154.877" x2="612.0642" y2="-172.8755" gradientTransform="matrix(1 0 0 -1 -142.8003 -45.1484)">
				<stop  offset="0" style="stop-color:#F58D76"/>
				<stop  offset="1" style="stop-color:#F79974"/>
			</linearGradient>
			<rect x="449.115" y="109.015" fill="url(#SVGID_3_)" width="21.328" height="21.329"/>
			
				<linearGradient id="SVGID_4_" gradientUnits="userSpaceOnUse" x1="633.0403" y1="-154.4033" x2="654.2525" y2="-172.4016" gradientTransform="matrix(1 0 0 -1 -142.8003 -45.1484)">
				<stop  offset="0" style="stop-color:#F79974"/>
				<stop  offset="1" style="stop-color:#FFDB6E"/>
			</linearGradient>
			<rect x="491.302" y="108.542" fill="url(#SVGID_4_)" width="21.328" height="21.328"/>
			<rect x="536.325" y="83.421" fill="#FFDB6F" width="21.328" height="21.328"/>
			
				<linearGradient id="SVGID_5_" gradientUnits="userSpaceOnUse" x1="612.1809" y1="-111.5078" x2="633.3942" y2="-129.5071" gradientTransform="matrix(1 0 0 -1 -142.8003 -45.1484)">
				<stop  offset="0" style="stop-color:#F79974"/>
				<stop  offset="1" style="stop-color:#FFDB6E"/>
			</linearGradient>
			<rect x="470.446" y="65.648" fill="url(#SVGID_5_)" width="21.329" height="21.328"/>
			
				<linearGradient id="SVGID_6_" gradientUnits="userSpaceOnUse" x1="612.1819" y1="-70.6279" x2="633.3953" y2="-88.6272" gradientTransform="matrix(1 0 0 -1 -142.8003 -45.1484)">
				<stop  offset="0" style="stop-color:#F79974"/>
				<stop  offset="1" style="stop-color:#FFDB6E"/>
			</linearGradient>
			<rect x="470.446" y="24.768" fill="url(#SVGID_6_)" width="21.329" height="21.329"/>
			
				<linearGradient id="SVGID_7_" gradientUnits="userSpaceOnUse" x1="637.7747" y1="-102.623" x2="658.9875" y2="-120.6218" gradientTransform="matrix(1 0 0 -1 -142.8003 -45.1484)">
				<stop  offset="0" style="stop-color:#F79974"/>
				<stop  offset="1" style="stop-color:#FFDB6E"/>
			</linearGradient>
			<rect x="496.038" y="56.761" fill="url(#SVGID_7_)" width="21.328" height="21.328"/>
			
				<linearGradient id="SVGID_8_" gradientUnits="userSpaceOnUse" x1="560.2825" y1="-145.8682" x2="581.4963" y2="-163.868" gradientTransform="matrix(1 0 0 -1 -142.8003 -45.1484)">
				<stop  offset="0" style="stop-color:#F58D76"/>
				<stop  offset="1" style="stop-color:#F79974"/>
			</linearGradient>
			<rect x="418.547" y="100.01" fill="url(#SVGID_8_)" width="21.328" height="21.328"/>
			
				<linearGradient id="SVGID_9_" gradientUnits="userSpaceOnUse" x1="560.2805" y1="-100.8433" x2="581.4952" y2="-118.8438" gradientTransform="matrix(1 0 0 -1 -142.8003 -45.1484)">
				<stop  offset="0" style="stop-color:#F58D76"/>
				<stop  offset="1" style="stop-color:#F79974"/>
			</linearGradient>
			<rect x="418.547" y="54.984" fill="url(#SVGID_9_)" width="21.328" height="21.328"/>
			
				<linearGradient id="SVGID_10_" gradientUnits="userSpaceOnUse" x1="538.9563" y1="-79.5176" x2="560.1663" y2="-97.514" gradientTransform="matrix(1 0 0 -1 -142.8003 -45.1484)">
				<stop  offset="0" style="stop-color:#F58D76"/>
				<stop  offset="1" style="stop-color:#F79974"/>
			</linearGradient>
			<rect x="397.219" y="33.655" fill="url(#SVGID_10_)" width="21.328" height="21.328"/>
			
				<linearGradient id="SVGID_11_" gradientUnits="userSpaceOnUse" x1="474.9729" y1="-81.2939" x2="496.1844" y2="-99.2915" gradientTransform="matrix(1 0 0 -1 -142.8003 -45.1484)">
				<stop  offset="0" style="stop-color:#EE3868"/>
				<stop  offset="1" style="stop-color:#F79974"/>
			</linearGradient>
			<rect x="333.236" y="35.433" fill="url(#SVGID_11_)" width="21.328" height="21.328"/>
			
				<linearGradient id="SVGID_12_" gradientUnits="userSpaceOnUse" x1="508.6233" y1="-93.3799" x2="529.837" y2="-111.3796" gradientTransform="matrix(1 0 0 -1 -142.8003 -45.1484)">
				<stop  offset="0" style="stop-color:#EE3868"/>
				<stop  offset="1" style="stop-color:#F79974"/>
			</linearGradient>
			<rect x="366.887" y="47.519" fill="url(#SVGID_12_)" width="21.329" height="21.328"/>
			
				<linearGradient id="SVGID_13_" gradientUnits="userSpaceOnUse" x1="538.9573" y1="-122.1733" x2="560.169" y2="-140.1711" gradientTransform="matrix(1 0 0 -1 -142.8003 -45.1484)">
				<stop  offset="0" style="stop-color:#F58D76"/>
				<stop  offset="1" style="stop-color:#F79974"/>
			</linearGradient>
			<rect x="397.219" y="76.312" fill="url(#SVGID_13_)" width="21.328" height="21.328"/>
		</g>
	</g>
	<g>
		<g>
			<g>
				<rect x="250.293" y="59.96" fill="#FCB017" width="43.368" height="43.367"/>
			</g>
			<g>
				<rect x="250.293" y="104.749" fill="#F7902E" width="43.368" height="43.368"/>
			</g>
			<g>
				<rect x="250.293" y="149.539" fill="#F3743C" width="43.368" height="43.367"/>
			</g>
			<g>
				<rect x="250.293" y="194.328" fill="#F1584B" width="43.368" height="43.367"/>
			</g>
			<g>
				<rect x="250.293" y="239.116" fill="#EE2356" width="43.368" height="43.366"/>
			</g>
			<g>
				<rect x="250.293" y="283.904" fill="#EE3868" width="43.368" height="43.369"/>
			</g>
			<g>
				<rect x="250.293" y="328.695" fill="#EF507E" width="43.368" height="43.367"/>
			</g>
			<g>
				<rect x="294.371" y="104.749" fill="#F3743C" width="43.365" height="43.368"/>
			</g>
			<g>
				<rect x="294.371" y="149.539" fill="#F1584B" width="43.365" height="43.367"/>
			</g>
			<g>
				<rect x="294.371" y="194.328" fill="#EE2356" width="43.365" height="43.367"/>
			</g>
			<g>
				<rect x="294.371" y="239.116" fill="#EE3868" width="43.365" height="43.366"/>
			</g>
			<g>
				<rect x="294.371" y="283.904" fill="#EF507E" width="43.365" height="43.369"/>
			</g>
			<g>
				<g>
					<path fill="#F1584B" d="M359.067,104.749v19.907h-19.907v23.461h43.367v-43.368H359.067z M381.818,146.34h-19.908v-19.907
						h19.906L381.818,146.34L381.818,146.34z"/>
				</g>
			</g>
			<g>
				<polygon fill="#EE3868" points="339.159,194.328 339.159,237.693 362.619,237.693 362.619,217.789 382.529,217.789 
					382.529,194.328 				"/>
			</g>
			<g>
				<polygon fill="#EF507E" points="339.159,239.116 339.159,282.484 362.619,282.484 362.619,262.577 382.529,262.577 
					382.529,239.116 				"/>
			</g>
			<g>
				<polygon fill="#EE2356" points="339.159,149.539 339.159,192.906 362.266,192.906 362.266,173 382.173,173 382.173,192.906 
					382.529,192.906 382.529,149.539 				"/>
			</g>
			<g>
				<polygon fill="#FEC54F" points="293.66,58.538 293.66,42.626 250.293,17.712 250.293,58.538 				"/>
			</g>
			<g>
				<polygon fill="#FFDB6E" points="248.871,58.538 248.871,17.706 205.504,42.25 205.504,58.538 				"/>
			</g>
			<g>
				<polygon fill="#F5AC1C" points="321.36,58.538 294.371,43.034 294.371,58.538 				"/>
			</g>
			<g>
				<polygon fill="#F7912F" points="294.371,103.327 317.12,103.327 317.12,83.954 337.028,83.954 337.028,103.327 337.739,103.327 
					337.739,67.947 323.836,59.96 294.371,59.96 				"/>
			</g>
			<g>
				<polygon fill="#F3743C" points="382.529,103.327 382.529,93.677 339.159,68.763 339.159,103.327 				"/>
			</g>
			<g>
				<polygon fill="#F1584B" points="399.323,103.327 383.948,94.493 383.948,103.327 				"/>
			</g>
			<g>
				<polygon fill="#EE2356" points="383.948,124.656 383.948,148.117 416.654,148.117 416.654,113.28 403.857,105.93 
					403.857,124.656 				"/>
			</g>
			<g>
				<polygon fill="#EE3868" points="403.857,169.445 383.948,169.445 383.948,192.906 407.409,192.906 407.409,173 416.654,173 
					416.654,149.539 403.857,149.539 				"/>
			</g>
			<g>
				<polygon fill="#EF507E" points="403.857,214.235 383.948,214.235 383.948,237.693 416.654,237.693 416.654,194.328 
					403.857,194.328 				"/>
			</g>
			<g>
				<polygon fill="#F17196" points="403.857,259.023 383.948,259.023 383.948,282.484 416.654,282.484 416.654,239.116 
					403.857,239.116 				"/>
			</g>
			<g>
				<polygon fill="#DF86A4" points="339.159,349.511 375.013,328.695 339.159,328.695 				"/>
			</g>
			<g>
				<polygon fill="#E58AA9" points="383.948,323.508 416.654,304.523 416.654,283.904 383.948,283.904 				"/>
			</g>
			<g>
				<rect x="82.51" y="194.328" fill="#FEC551" width="32.704" height="43.367"/>
			</g>
			<g>
				<rect x="82.51" y="239.116" fill="#FCB017" width="32.704" height="43.366"/>
			</g>
			<g>
				<polygon fill="#F38D2D" points="115.214,323.671 115.214,283.904 82.51,283.904 82.51,304.523 				"/>
			</g>
			<g>
				<polygon fill="#E55447" points="123.798,328.695 159.292,349.479 159.292,328.695 				"/>
			</g>
			<g>
				<polygon fill="#EE2356" points="204.082,328.695 160.714,328.695 160.714,350.313 197.869,372.063 204.082,372.063 				"/>
			</g>
			<g>
				<polygon fill="#EF507E" points="205.504,373.484 205.504,376.534 248.871,401.923 248.871,373.484 				"/>
			</g>
			<g>
				<polygon fill="#F17196" points="250.293,373.484 250.293,401.098 293.66,375.922 293.66,373.484 				"/>
			</g>
			<g>
				<polygon fill="#F17196" points="294.371,328.695 294.371,372.063 300.307,372.063 337.739,350.334 337.739,328.695 				"/>
			</g>
			<g>
				<polygon fill="#F17196" points="339.159,283.904 339.159,327.273 377.463,327.273 382.529,324.336 382.529,283.904 				"/>
			</g>
			<g>
				<polygon fill="#FEEC99" points="204.082,43.055 176.723,58.538 204.082,58.538 				"/>
			</g>
			<g>
				<polygon fill="#FEE995" points="159.292,103.327 159.292,68.403 115.925,92.948 115.925,103.327 				"/>
			</g>
			<g>
				<polygon fill="#F8F9E1" points="115.214,103.327 115.214,93.35 97.585,103.327 				"/>
			</g>
			<g>
				<polygon fill="#FEE995" points="82.51,148.117 115.214,148.117 115.214,104.749 95.072,104.749 82.51,111.859 				"/>
			</g>
			<g>
				<rect x="82.51" y="149.539" fill="#FFDB6E" width="32.704" height="43.367"/>
			</g>
			<g>
				<polygon fill="#D07E9A" points="200.298,373.484 204.082,375.7 204.082,373.484 				"/>
			</g>
			<g>
				<polygon fill="#D07E9A" points="294.371,375.51 297.858,373.484 294.371,373.484 				"/>
			</g>
			<g>
				<polygon fill="#FFDC73" points="120.902,136.031 159.292,114.276 159.292,104.749 115.925,104.749 115.925,148.117 
					120.902,148.117 				"/>
			</g>
			<g>
				<polygon fill="#EE3868" points="205.504,328.695 205.504,372.063 248.871,372.063 248.871,353.579 205.803,328.695 				"/>
			</g>
			<g>
				<polygon fill="#F1584B" points="160.714,302.645 160.714,327.273 203.343,327.273 				"/>
			</g>
			<g>
				<polygon fill="#F3743C" points="127.054,283.904 115.925,283.904 115.925,324.087 121.369,327.273 159.292,327.273 
					159.292,302.532 				"/>
			</g>
			<g>
				<polygon fill="#F8993F" points="120.902,279.641 120.902,239.116 115.925,239.116 115.925,282.484 125.823,282.484 				"/>
			</g>
			<g>
				<rect x="115.925" y="194.328" fill="#FBB723" width="4.977" height="43.367"/>
			</g>
			<g>
				<rect x="115.925" y="149.539" fill="#FFC759" width="4.977" height="43.367"/>
			</g>
			<g>
				<polygon fill="#FEC551" points="205.504,59.96 205.504,88.8 248.871,64.226 248.871,59.96 				"/>
			</g>
			<g>
				<polygon fill="#FFDB6F" points="204.082,89.607 204.082,59.96 174.213,59.96 160.714,67.598 160.714,103.327 179.868,103.327 
									"/>
			</g>
			<g>
				<polygon fill="#FFC95A" points="176.105,104.749 160.714,104.749 160.714,113.469 				"/>
			</g>
		</g>
	</g>
</g>
</svg>
